<?xml version="1.0" encoding="utf-8"?>
<!-- Generator: Adobe Illustrator 19.2.1, SVG Export Plug-In . SVG Version: 6.00 Build 0)  -->
<!DOCTYPE svg PUBLIC "-//W3C//DTD SVG 1.1//EN" "http://www.w3.org/Graphics/SVG/1.1/DTD/svg11.dtd">
<svg version="1.1" id="Calque_1" xmlns="http://www.w3.org/2000/svg" xmlns:xlink="http://www.w3.org/1999/xlink" x="0px" y="0px"
	 viewBox="0 0 21 21" style="enable-background:new 0 0 21 21;" xml:space="preserve">
<style type="text/css">
	.st0{fill:#387EF5;}
</style>
<circle class="st0" cx="10.5" cy="10.5" r="7.8"/>
<g>
	<path class="st0" d="M1.4,5.2C3.3,2.1,6.6,0,10.5,0C16.3,0,21,4.7,21,10.5S16.3,21,10.5,21c-3.8,0-7.2-2.1-9-5.1l1.1,0
		c1.7,2.5,4.6,4.2,7.9,4.2c5.3,0,9.6-4.3,9.6-9.6C20,5.2,15.8,1,10.5,1C7.2,1,4.3,2.6,2.6,5.2"/>
</g>
<polygon class="st0" points="0,10.5 1.7,9.2 3.3,7.9 3.3,10.5 3.3,13.1 1.7,11.8 "/>
</svg>
