<?xml version="1.0" encoding="utf-8"?>
<!-- Generator: Adobe Illustrator 19.2.1, SVG Export Plug-In . SVG Version: 6.00 Build 0)  -->
<!DOCTYPE svg PUBLIC "-//W3C//DTD SVG 1.1//EN" "http://www.w3.org/Graphics/SVG/1.1/DTD/svg11.dtd">
<svg version="1.1" id="Calque_1" xmlns="http://www.w3.org/2000/svg" xmlns:xlink="http://www.w3.org/1999/xlink" x="0px" y="0px"
	 viewBox="0 0 224 54" style="enable-background:new 0 0 224 54;" xml:space="preserve">
<style type="text/css">
	.st0{fill:#FFFFFF;}
</style>
<g>
	<g>
		<g>
			<path class="st0" d="M12.8,2.6L12.8,2.6H1c-0.5,0-1,0.4-1,1l0,0v11.8h0c0,0,0,0,0,0c0,0.5,0.4,1,1,1s1-0.4,1-1c0,0,0,0,0,0h0V4.6
				h10.9l0,0c0.5,0,1-0.4,1-1C13.8,3.1,13.4,2.6,12.8,2.6z"/>
		</g>
		<g>
			<path class="st0" d="M49.4,15.5L49.4,15.5V3.6c0-0.5-0.4-1-1-1l0,0H36.6v0c0,0,0,0,0,0c-0.5,0-1,0.4-1,1s0.4,1,1,1c0,0,0,0,0,0v0
				h10.8v10.9l0,0c0,0.5,0.4,1,1,1C48.9,16.5,49.4,16,49.4,15.5z"/>
		</g>
		<g>
			<path class="st0" d="M36.5,52L36.5,52h11.8c0.5,0,1-0.4,1-1l0,0V39.2h0c0,0,0,0,0,0c0-0.5-0.4-1-1-1s-1,0.4-1,1c0,0,0,0,0,0h0V50
				H36.5l0,0c-0.5,0-1,0.4-1,1C35.5,51.6,36,52,36.5,52z"/>
		</g>
		<g>
			<path class="st0" d="M0,39.2L0,39.2V51c0,0.5,0.4,1,1,1l0,0h11.8v0c0,0,0,0,0,0c0.5,0,1-0.4,1-1s-0.4-1-1-1c0,0,0,0,0,0v0H2V39.2
				l0,0c0-0.5-0.4-1-1-1C0.4,38.2,0,38.6,0,39.2z"/>
		</g>
	</g>
</g>
<g>
	<path class="st0" d="M27.5,34.4c5.8-1.3,10.1-6.4,10.1-12.6c0-7.1-5.8-12.9-12.9-12.9c-7.1,0-12.9,5.8-12.9,12.9c0,0,0,0,0,0
		c0-6.9,5.5-12.6,12.3-12.9c-6.9,0.3-12.3,6-12.3,12.9c0,2.8,0.9,6,2.4,8.1l10.5,15.9l10.5-15.9c0.8-1.1,1.4-2.5,1.8-3.9
		C35.5,30.2,31.9,33.5,27.5,34.4z M24.7,9.6c6.7,0,12.2,5.5,12.2,12.2S31.4,34,24.7,34c-6.7,0-12.2-5.5-12.2-12.2S18,9.6,24.7,9.6z
		 M24.7,34.7C24.7,34.7,24.7,34.7,24.7,34.7C24.8,34.7,24.7,34.7,24.7,34.7C24.7,34.7,24.7,34.7,24.7,34.7z M27.1,34.5
		c-0.1,0-0.3,0.1-0.4,0.1C26.8,34.6,27,34.5,27.1,34.5z M25.9,34.7c-0.1,0-0.2,0-0.3,0C25.7,34.7,25.8,34.7,25.9,34.7z"/>
</g>
<g>
	<g>
		<g>
			<path class="st0" d="M16.8,23.6L16.8,23.6c-0.2,0-0.4-0.1-0.6-0.2C16.1,23.2,16,23,16,22.8c0-4.9,3.7-9,8.5-9.6
				c0.5-0.1,0.9,0.3,0.9,0.7c0,0.2,0,0.4-0.2,0.6c-0.1,0.2-0.3,0.3-0.6,0.3c-4,0.5-7,3.9-7,8C17.7,23.2,17.3,23.6,16.8,23.6z"/>
		</g>
	</g>
</g>
<g>
	<path class="st0" d="M24.7,34.8c-7,0-12.7-5.7-12.7-12.7c0-7,5.7-12.7,12.7-12.7c7,0,12.7,5.7,12.7,12.7
		C37.4,29.1,31.7,34.8,24.7,34.8z M24.7,11c-6.1,0-11.1,5-11.1,11.1c0,6.1,5,11.1,11.1,11.1c6.1,0,11.1-5,11.1-11.1
		C35.7,16,30.8,11,24.7,11z"/>
</g>
<g>
	<path class="st0" d="M64.7,8.6h12v3.6H69v4.4h6.5v3.6H69v7.4h-4.3V8.6z"/>
	<path class="st0" d="M79,13.2h3.5l0.3,2.5h0.1c1-1.9,2.6-2.9,4.1-2.9c0.8,0,1.3,0.1,1.7,0.3L88,16.8c-0.5-0.1-1-0.2-1.6-0.2
		c-1.1,0-2.4,0.7-3.2,2.6v8.4H79V13.2z"/>
	<path class="st0" d="M97.3,18.3c-0.1-1.3-0.7-2.1-2.3-2.1c-1.2,0-2.4,0.5-3.8,1.3l-1.5-2.8c1.8-1.1,3.9-1.9,6.2-1.9
		c3.7,0,5.7,2.1,5.7,6.5v8.3h-3.5l-0.3-1.5h-0.1c-1.2,1.1-2.6,1.8-4.2,1.8c-2.6,0-4.3-1.9-4.3-4.4C89.2,20.5,91.6,18.9,97.3,18.3z
		 M94.9,24.6c1,0,1.6-0.5,2.4-1.2v-2.5c-3.1,0.4-4,1.3-4,2.4C93.3,24.2,93.9,24.6,94.9,24.6z"/>
	<path class="st0" d="M105.2,13.2h3.5L109,15h0.1c1.2-1.2,2.5-2.2,4.4-2.2c2,0,3.3,0.9,4,2.4c1.3-1.3,2.6-2.4,4.5-2.4
		c3.1,0,4.5,2.2,4.5,5.8v9h-4.3v-8.4c0-2.1-0.6-2.7-1.8-2.7c-0.7,0-1.5,0.5-2.5,1.4v9.7h-4.3v-8.4c0-2.1-0.6-2.7-1.8-2.7
		c-0.7,0-1.5,0.5-2.4,1.4v9.7h-4.3V13.2z"/>
	<path class="st0" d="M136.1,12.8c4.1,0,6.1,3,6.1,6.9c0,0.8-0.1,1.5-0.2,1.8h-8.6c0.4,2.2,1.8,3.1,3.8,3.1c1.1,0,2.1-0.3,3.1-1
		l1.4,2.6c-1.5,1-3.4,1.6-5.1,1.6c-4.1,0-7.3-2.8-7.3-7.6C129.3,15.7,132.7,12.8,136.1,12.8z M138.6,18.9c0-1.7-0.7-2.8-2.4-2.8
		c-1.3,0-2.5,0.9-2.8,2.8H138.6z"/>
	<path class="st0" d="M149.5,28.7v4.2h-4.3V13.2h3.5l0.3,1.4h0.1c1.1-1,2.6-1.8,4.1-1.8c3.5,0,5.6,2.9,5.6,7.3c0,4.9-3,7.8-6.1,7.8
		c-1.3,0-2.4-0.6-3.4-1.5L149.5,28.7z M151.8,24.4c1.5,0,2.7-1.3,2.7-4.2c0-2.6-0.8-3.9-2.5-3.9c-0.9,0-1.6,0.4-2.5,1.3v5.9
		C150.3,24.2,151.1,24.4,151.8,24.4z"/>
	<path class="st0" d="M161.9,7.2h4.3v16.1c0,0.9,0.4,1.2,0.8,1.2c0.2,0,0.3,0,0.5-0.1l0.5,3.2c-0.5,0.2-1.2,0.3-2.2,0.3
		c-2.9,0-3.9-1.9-3.9-4.8V7.2z"/>
	<path class="st0" d="M177.8,18.3c-0.1-1.3-0.7-2.1-2.3-2.1c-1.2,0-2.4,0.5-3.8,1.3l-1.5-2.8c1.8-1.1,3.9-1.9,6.2-1.9
		c3.7,0,5.7,2.1,5.7,6.5v8.3h-3.5l-0.3-1.5h-0.1c-1.2,1.1-2.6,1.8-4.2,1.8c-2.6,0-4.3-1.9-4.3-4.4C169.7,20.5,172.1,18.9,177.8,18.3
		z M175.4,24.6c1,0,1.6-0.5,2.4-1.2v-2.5c-3.1,0.4-4,1.3-4,2.4C173.8,24.2,174.4,24.6,175.4,24.6z"/>
	<path class="st0" d="M192.4,12.8c1.8,0,3.3,0.7,4.2,1.7l-1.9,2.6c-0.7-0.6-1.3-0.8-2-0.8c-2.1,0-3.4,1.6-3.4,4.1s1.4,4.1,3.2,4.1
		c1,0,1.9-0.5,2.6-1l1.7,2.7c-1.4,1.2-3.2,1.8-4.8,1.8c-4,0-7.1-2.8-7.1-7.6S188.4,12.8,192.4,12.8z"/>
	<path class="st0" d="M204.5,12.8c4.1,0,6.1,3,6.1,6.9c0,0.8-0.1,1.5-0.2,1.8h-8.6c0.4,2.2,1.8,3.1,3.8,3.1c1.1,0,2.1-0.3,3.1-1
		l1.4,2.6c-1.5,1-3.4,1.6-5.1,1.6c-4.1,0-7.3-2.8-7.3-7.6C197.7,15.7,201,12.8,204.5,12.8z M207,18.9c0-1.7-0.7-2.8-2.4-2.8
		c-1.3,0-2.5,0.9-2.8,2.8H207z"/>
	<path class="st0" d="M214.2,23.2c1.3,1,2.5,1.5,3.7,1.5c1.3,0,1.8-0.5,1.8-1.2c0-1-1.5-1.4-2.9-2c-1.7-0.7-3.8-1.9-3.8-4.2
		c0-2.7,2.2-4.5,5.5-4.5c2.2,0,3.8,0.9,5.1,1.8l-1.9,2.6c-1-0.8-2-1.2-3.1-1.2c-1.1,0-1.6,0.4-1.6,1.1c0,0.9,1.3,1.3,2.8,1.8
		c1.8,0.7,3.9,1.7,3.9,4.3c0,2.6-2.1,4.7-5.9,4.7c-1.9,0-4.1-0.8-5.5-2L214.2,23.2z"/>
</g>
<g>
	<path class="st0" d="M68.9,36c1.2,0,2.2,0.6,2.8,1.3L71,38.1c-0.5-0.6-1.2-1-2.1-1c-2,0-3.3,1.6-3.3,4.2c0,2.6,1.2,4.2,3.2,4.2
		c1,0,1.7-0.4,2.4-1.1l0.7,0.8c-0.8,0.9-1.8,1.5-3.1,1.5c-2.6,0-4.5-2-4.5-5.3C64.3,38,66.3,36,68.9,36z"/>
	<path class="st0" d="M78.1,41.6c0-1-0.3-1.9-1.6-1.9c-0.9,0-1.7,0.4-2.3,0.8l-0.5-0.9c0.7-0.5,1.8-1,3-1c1.9,0,2.6,1.2,2.6,3.1v4.7
		h-1.1l-0.1-0.9h0c-0.7,0.6-1.6,1.1-2.5,1.1c-1.3,0-2.2-0.8-2.2-2.2C73.4,42.8,74.8,42,78.1,41.6z M76,45.6c0.7,0,1.3-0.4,2.1-1
		v-2.1c-2.6,0.3-3.4,0.9-3.4,1.9C74.6,45.2,75.2,45.6,76,45.6z"/>
	<path class="st0" d="M83.1,47.1v2.6h-1.3V38.8h1.1l0.1,0.9h0c0.7-0.6,1.5-1.1,2.4-1.1c2,0,3,1.5,3,3.9c0,2.6-1.6,4.1-3.3,4.1
		c-0.7,0-1.4-0.3-2.1-0.9L83.1,47.1z M84.9,45.6c1.3,0,2.2-1.1,2.2-3c0-1.7-0.6-2.8-2-2.8c-0.6,0-1.3,0.4-2,1v4
		C83.7,45.3,84.4,45.6,84.9,45.6z"/>
	<path class="st0" d="M90.7,39.9h-1.1v-1l1.2-0.1l0.2-2.1H92v2.1h2.1v1H92v4.2c0,0.9,0.3,1.5,1.2,1.5c0.3,0,0.6-0.1,0.9-0.2l0.3,1
		c-0.4,0.1-0.9,0.3-1.4,0.3c-1.6,0-2.2-1-2.2-2.5V39.9z"/>
	<path class="st0" d="M95.6,38.8h1.3v4.7c0,1.4,0.4,2,1.4,2c0.8,0,1.3-0.4,2.1-1.3v-5.4h1.3v7.6h-1.1l-0.1-1.2h0
		c-0.7,0.8-1.5,1.4-2.5,1.4c-1.6,0-2.3-1-2.3-3V38.8z"/>
	<path class="st0" d="M104.2,38.8h1.1l0.1,1.4h0c0.5-1,1.3-1.6,2.2-1.6c0.3,0,0.6,0,0.8,0.2l-0.3,1.1c-0.3-0.1-0.4-0.1-0.7-0.1
		c-0.6,0-1.4,0.5-1.9,1.8v4.9h-1.3V38.8z"/>
	<path class="st0" d="M112.4,38.6c1.9,0,3,1.4,3,3.6c0,0.3,0,0.5,0,0.7h-5.1c0.1,1.6,1.1,2.7,2.5,2.7c0.7,0,1.3-0.2,1.9-0.6l0.5,0.8
		c-0.7,0.4-1.5,0.8-2.5,0.8c-2,0-3.7-1.5-3.7-4S110.6,38.6,112.4,38.6z M114.3,42.1c0-1.6-0.7-2.4-1.9-2.4c-1.1,0-2,0.9-2.2,2.4
		H114.3z"/>
	<path class="st0" d="M123.2,38.6c0.9,0,1.5,0.3,2.1,0.9l-0.1-1.3v-2.9h1.3v11.2h-1.1l-0.1-0.9h0c-0.6,0.6-1.4,1.1-2.3,1.1
		c-1.9,0-3.2-1.4-3.2-4C119.9,40.2,121.5,38.6,123.2,38.6z M123.3,45.6c0.7,0,1.3-0.3,1.9-1.1v-4c-0.6-0.6-1.2-0.8-1.9-0.8
		c-1.2,0-2.2,1.2-2.2,2.9C121.2,44.5,122,45.6,123.3,45.6z"/>
	<path class="st0" d="M132,38.6c1.9,0,3,1.4,3,3.6c0,0.3,0,0.5,0,0.7h-5.1c0.1,1.6,1.1,2.7,2.5,2.7c0.7,0,1.3-0.2,1.9-0.6l0.5,0.8
		c-0.7,0.4-1.5,0.8-2.5,0.8c-2,0-3.7-1.5-3.7-4S130.3,38.6,132,38.6z M133.9,42.1c0-1.6-0.7-2.4-1.9-2.4c-1.1,0-2,0.9-2.2,2.4H133.9
		z"/>
	<path class="st0" d="M140.1,35.3h1.3V45c0,0.4,0.2,0.6,0.4,0.6c0.1,0,0.1,0,0.3,0l0.2,1c-0.2,0.1-0.4,0.1-0.7,0.1
		c-1,0-1.4-0.6-1.4-1.7V35.3z"/>
	<path class="st0" d="M143.9,36.4c0-0.5,0.4-0.8,0.9-0.8c0.5,0,0.9,0.3,0.9,0.8c0,0.5-0.4,0.8-0.9,0.8
		C144.2,37.3,143.9,36.9,143.9,36.4z M144.1,38.8h1.3v7.6h-1.3V38.8z"/>
	<path class="st0" d="M150.8,38.6c1.9,0,3,1.4,3,3.6c0,0.3,0,0.5,0,0.7h-5.1c0.1,1.6,1.1,2.7,2.5,2.7c0.7,0,1.3-0.2,1.9-0.6l0.5,0.8
		c-0.7,0.4-1.5,0.8-2.5,0.8c-2,0-3.7-1.5-3.7-4S149.1,38.6,150.8,38.6z M152.7,42.1c0-1.6-0.7-2.4-1.9-2.4c-1.1,0-2,0.9-2.2,2.4
		H152.7z"/>
	<path class="st0" d="M155.6,38.8h1.3v4.7c0,1.4,0.4,2,1.4,2c0.8,0,1.3-0.4,2.1-1.3v-5.4h1.3v7.6h-1.1l-0.1-1.2h0
		c-0.7,0.8-1.5,1.4-2.5,1.4c-1.6,0-2.3-1-2.3-3V38.8z"/>
	<path class="st0" d="M165.7,42.5l-2.3-3.6h1.4l1,1.7c0.2,0.4,0.5,0.8,0.8,1.3h0.1c0.2-0.4,0.5-0.9,0.7-1.3l0.9-1.7h1.3l-2.3,3.8
		l2.5,3.8h-1.4l-1.1-1.8c-0.3-0.5-0.5-0.9-0.8-1.4h-0.1c-0.3,0.4-0.5,0.9-0.8,1.4l-1,1.8h-1.3L165.7,42.5z"/>
</g>
</svg>
