<?xml version="1.0" standalone="no"?>
<!DOCTYPE svg PUBLIC "-//W3C//DTD SVG 1.1//EN" "http://www.w3.org/Graphics/SVG/1.1/DTD/svg11.dtd">
<svg xmlns="http://www.w3.org/2000/svg">
<metadata>Generated by Fontastic.me</metadata>
<defs>
<font id="frameplaces" horiz-adv-x="512">
<font-face font-family="frameplaces" units-per-em="512" ascent="480" descent="-32"/>
<missing-glyph horiz-adv-x="512" />

<glyph glyph-name="round-arrow-left" unicode="&#97;" d="M256 512c-142 0-256-114-256-256 0-142 114-256 256-256 142 0 256 114 256 256 0 142-114 256-256 256z m73-270l-123-123c-7-6-16-6-23 0-6 7-6 16 0 23l115 114-115 114c-6 7-6 16 0 23 7 6 16 6 23 0l123-123c4-4 5-10 4-14 1-5 0-11-4-14z"/>
<glyph glyph-name="user" unicode="&#98;" d="M403 105c0-40-35-73-79-73l-130 0c-44 0-79 32-79 73l0 48c0 34 26 61 61 70 23-19 52-30 83-30 31 0 60 11 83 30 35-8 61-36 61-70z m-256 247c0 70 50 128 112 128 62 0 112-58 112-128 0-70-50-128-112-128-62 0-112 58-112 128z m224-101c20 27 33 63 33 101 0 89-64 160-144 160-80 0-145-71-145-160 0-38 13-74 33-101-37-13-65-48-65-91l0-64c0-53 43-96 96-96l160 0c54 0 96 43 96 96l0 64c0 42-26 78-64 91z"/>
<glyph glyph-name="lock" unicode="&#99;" d="M268 34c-71 0-127 57-127 127 0 70 56 127 127 127 68 0 127-60 127-127 1-69-57-127-127-127z m-95 351c0 52 42 96 96 96 53 0 96-43 96-96l0-96c-27 20-60 32-96 32-36 0-70-12-96-32z m223-128l0 128c0 70-58 127-128 127-71 0-127-57-127-127l0-128c-20-27-32-60-32-95 0-87 71-159 159-159 87 0 159 72 159 159 1 35-12 68-31 95z m-128-63c-9 0-16-7-16-16l0-64c0-8 7-16 16-16 8 0 16 8 16 16l0 64c0 9-7 16-16 16z"/>
<glyph glyph-name="building" unicode="&#100;" d="M52 183l90 23 0-159-19 0 0 116c0 4-4 9-9 9-5 0-7-5-7-9l0-116-20 0 0 107c0 4-3 8-8 8-5 0-9-3-9-8l0-107-18 0z m188 132l0-20-81 0 0 20z m-81-249l81 0 0-19-81 0z m81 194l-81 0 0 19 81 0z m-81-159l81 0 0-19-81 0z m81 107l0-19-81 0 0 19z m0 16l-81 0 0 19 81 0z m-81-70l0 19 81 0 0-19z m81-17l0-20-81 0 0 20z m-19 286l89-52 0-324-19 0 0 311c0 5-3 9-8 9-6 0-9-3-9-9l0-311-18 0 0 275c0 4-3 9-9 9l-26 0z m116-135c4 0 9 3 9 9 0 9 8 18 18 18 9 0 18-9 18-18 0-5 3-9 8-9l10 0 0-19-73 0 0 19z m115-116l0-18-46 0 0 18c0 0 0 1 1 1l45-1c0 1 0 0 0 0z m18-54l-81 0 0 20 81 0z m-81-52l81 0 0-19-81 0z m-62 9l46 0 0-28-46 0z m66 105l-66 0 0 73 73 0 0-65c-3-2-5-6-7-8z m77-98l-81 0 0 19 81 0z m-89 72c-4 0-9-4-9-9l0-53-46 0 0 72 63 0 0-9-8 0z m125-107l-19 0 0 98c0 4-3 9-8 9l-10 0 0 18c0 9-7 17-17 17l-36 0 0 106c0 5-3 9-9 9l-10 0c-3 13-13 22-26 26l0 54c0 4-3 9-8 9-6 0-9-4-9-9l0-54c-13-4-22-13-25-26l-3 0 0 71c0 4-1 6-4 8l-102 60 0 21c0 4-3 9-9 9-5 0-7-4-7-8l0-134-54 0c-4 0-8-4-8-9l0-100-100-25c-4-1-7-4-7-8l0-143-26 0c-5 0-9-3-9-9 0-5 3-8 9-8l497 0c4 0 8 3 8 8 0 6-4 10-8 10z"/>
<glyph glyph-name="campaign" unicode="&#101;" d="M99 159c7 1 13 3 18 5l0-67-18 0z m-42 44c0 8 4 34 11 59 11 35 21 42 23 42 3 0 11-7 22-42 8-24 12-51 12-59 0-13-12-25-27-28l0 26c0 4-3 7-7 7-5 0-8-3-8-7l0-26c-15 3-26 14-26 28z m196 90l96-54c-1-5-1-11-2-15l-91 51c-2 1-5 1-7 0l-108-61c-1 5-1 10-2 14z m-94-7l18 0 0-17-18-11z m256 91c16-35 51-116 51-160 0-26-19-47-44-52l0 48 24 24c3 3 3 8 0 12-3 3-9 3-12 0l-12-12 0 15c0 4-3 7-7 7-4 0-8-3-8-7l0-41-12 12c-4 3-9 3-12 0-3-3-3-9 0-12l23-23 0-23c-24 5-43 26-43 52 0 44 36 126 52 160z m-27-222c6-2 12-5 18-5l0-52-18 0z m-68 3l18 0 0-18-18 0z m18 16l-18 0 0 9 18 0z m-51 18c0 4-3 7-8 7l-51 0c-4 0-7-3-7-7l0-94-87 0 0 80c5 5 8 12 9 18l111 63 95-53c0-2 1-4 1-7-1 0-2 2-3 2l-34 0c-5 0-8-4-8-8l0-60c0-4 3-7 8-7l34 0c4 0 7 3 7 7l0 55c4-9 11-16 18-23l0-67-86 0z m-16-44c-5 0-9-3-9-7 0-4 4-8 8-8l0-35-35 0 0 87 35 0 0-37z m220-51l-69 0 0 52c33 5 60 32 60 68 0 59-57 177-61 182-1 3-4 4-7 4-3 0-5-2-8-4 0 0-15-31-29-68-12-30-21-55-25-76l-95 53c-2 1-5 1-7 0l-57-32 0 9c4 0 8 3 8 7 0 5-4 8-8 8l-51 0c-4 0-8-3-8-8 0-4 4-7 8-7l0-36-7-4c-2 8-3 14-6 22-11 35-23 52-37 52-14 0-27-17-38-52-7-26-12-54-12-64 0-23 18-41 42-44l0-61-69 0c-4 0-8-3-8-7 0-5 4-8 8-8l476 0c4 0 7 3 7 8 1 3-3 6-7 6z"/>
<glyph glyph-name="coast" unicode="&#102;" d="M118 156l48 18-7-15-32-32-26 0z m88 59l72 8-23-47-66-49-40 0 22 21c1 1 1 1 1 2z m291-88l-81 0 27 39c1 1 1 3 1 4l15 69c1 4-2 8-7 10-4 1-8-3-9-7l-15-68-31-47-180 0 50 37c1 1 2 2 2 3l51 102 45 13-15-90-25-33c-3-3-2-9 2-12 2-1 4-2 6-2 2 0 5 1 6 3l27 35c1 2 1 3 1 4l17 101 39 32 76 9c4 0 8 4 8 8 0 4-5 8-9 8l-79-9c-1 0-3-1-4-2l-43-34-59-17c-3-1-5-2-6-5l-19-39-87-9c-4 0-6-2-7-4l-16-32-67-24c-2-1-3-3-4-4l-24-39-74 0c-5 0-9-3-9-9 0-5 3-8 9-8l488 0c4 0 9 3 9 8 0 6-5 9-9 9z m-157-35l-158 0c-4 0-8-3-8-9 0-4 3-8 8-8l157 0c4 0 9 3 9 8 0 6-3 9-8 9z m-192 0l-70 0c-4 0-9-3-9-9 0-4 4-8 9-8l69 0c4 0 9 3 9 8 0 6-3 9-8 9z m245 0l-18 0c-4 0-8-3-8-9 0-4 3-8 8-8l18 0c4 0 8 3 8 8-1 6-4 9-8 9z m-71-35l-87 0c-5 0-9-4-9-9 0-4 3-9 9-9l87 0c4 0 9 4 9 9 0 5-5 9-9 9z m-121 0l-18 0c-4 0-8-4-8-9 0-4 3-9 8-9l18 0c4 0 8 4 8 9-1 5-4 9-8 9z m253 237l-4-17c-1-4 2-8 7-9 1 0 1 0 2 0 4 0 7 2 7 6l4 17c1 4-2 9-6 10-4 1-9-1-10-7z"/>
<glyph glyph-name="map" unicode="&#103;" d="M480 89l-96 71-128-96-128 48-96-60 0 320 96 60 128-48 128 96 96-71z m-96 423l-128-96-128 48-128-80 0-384 128 80 128-48 128 96 128-96 0 384z m0-272c0-9 7-16 16-16 9 0 16 7 16 16l0 128c0 9-7 16-16 16-9 0-16-7-16-16z m-112 64c-9 0-16-7-16-16l0-96c0-9 7-16 16-16 9 0 16 7 16 16l0 96c0 9-7 16-16 16z m-128 48c-9 0-16-7-16-16l0-160c0-9 7-16 16-16 9 0 16 7 16 16l0 160c0 9-7 16-16 16z"/>
<glyph glyph-name="list" unicode="&#104;" d="M495 267l-351 0c-10 0-17-10-17-22 0-11 7-21 17-21l351 0c10 0 17 10 17 21 0 12-7 22-17 22z m0-169l-351 0c-10 0-17-9-17-21 0-12 7-22 17-22l351 0c10 0 17 10 17 22 0 12-7 21-17 21z m-474 337c-11 0-21-9-21-21 0-12 10-21 21-21 12 0 22 9 22 21 0 12-10 21-22 21z m123-42l351 0c10 0 17 9 17 21 0 12-7 21-17 21l-351 0c-10 0-17-9-17-21 0-12 7-21 17-21z m-123-295c-11 0-21-9-21-21 0-12 10-22 21-22 12 0 22 10 22 22-1 12-10 21-22 21z m0 169c-11 0-21-10-21-22 0-11 10-21 21-21 12 0 22 10 22 21-1 12-10 22-22 22z"/>
<glyph glyph-name="search" unicode="&#105;" d="M505 29l-132 129c34 37 56 86 56 141 0 115-95 209-214 209-118 0-212-94-212-210 0-117 95-209 212-209 52 0 98 17 135 46l131-129c6-6 17-6 24 0 6 7 6 16 0 23z m-290 92c-99 0-180 78-180 177 0 98 81 178 180 178 100 0 181-79 181-177 0-98-80-178-181-178z"/>
<glyph glyph-name="add" unicode="&#106;" d="M352 272l-80 0 0 80c0 9-7 16-16 16-9 0-16-7-16-16l0-80-80 0c-9 0-16-7-16-16 0-9 7-16 16-16l80 0 0-80c0-9 7-16 16-16 9 0 16 7 16 16l0 80 80 0c9 0 16 7 16 16 0 9-7 16-16 16z m-96-240c-124 0-224 100-224 224 0 124 100 224 224 224 124 0 224-100 224-224 0-124-100-224-224-224z m0 480c-142 0-256-114-256-256 0-142 114-256 256-256 142 0 256 114 256 256 0 142-114 256-256 256z"/>
<glyph glyph-name="user-list" unicode="&#107;" d="M496 128l-96 0c-9 0-16-7-16-16 0-9 7-16 16-16l96 0c9 0 16 7 16 16 0 9-7 16-16 16z m0 96l-96 0c-9 0-16-7-16-16 0-9 7-16 16-16l96 0c9 0 16 7 16 16 0 9-7 16-16 16z m0 96l-128 0c-9 0-16-7-16-16 0-9 7-16 16-16l128 0c9 0 16 7 16 16 0 9-7 16-16 16z m-128 64l128 0c9 0 16 7 16 16 0 9-7 16-16 16l-128 0c-9 0-16-7-16-16 0-9 7-16 16-16z m-48-281c0-39-35-71-79-71l-130 0c-44 0-79 32-79 71l0 48c0 35 26 62 61 71 23-19 52-30 83-30 31 0 60 11 83 30 34-8 61-36 61-71z m-256 249c0 70 50 128 112 128 62 0 112-58 112-128 0-70-50-128-112-128-62 0-112 58-112 128z m223-101c20 27 33 63 33 101 0 89-64 160-144 160-80 0-144-71-144-160 0-38 13-74 33-101-38-13-65-49-65-91l0-64c0-53 43-96 96-96l160 0c53 0 96 43 96 96l0 64c0 42-27 78-65 91z"/>
<glyph glyph-name="wallet" unicode="&#108;" d="M460 218l-78 0c-9 0-16-8-16-16l0-62c0-9 7-16 16-16l78 0 0-78c0-9-8-16-16-16l-374 0c-8 0-16 7-16 16 0 0 0 285 0 295l390 0c8 0 16-7 16-16z m0-46c0-9 0-6 0-16l-62 0c0 9 0 7 0 16l0 16 62 0c0-13 0-8 0-16z m-31 295l0-94-304 0z m31-94l0 110c0 9-3 14-12 17-6 2-12 1-19-1l-406-126 0-342c0-17 14-31 31-31l406 0c17 0 31 14 31 31l0 311c0 17-14 31-31 31z"/>
<glyph glyph-name="forgot-password" unicode="&#109;" d="M268 32c-71 0-127 57-127 127 0 70 56 127 127 127 68 0 127-60 127-127 1-70-57-127-127-127z m-95 350c0 52 42 96 96 96 53 0 96-43 96-96l0-96c-27 20-60 32-96 32-36 0-70-12-96-32z m223-128l0 128c0 70-57 127-127 127-71 0-128-57-128-127l0-128c-20-27-32-60-32-95 0-88 71-159 159-159 87 0 159 71 159 159 1 36-12 69-31 95z m-111-60c0 11-7 18-18 18-9 0-16-4-23-11l-14 12c10 12 23 20 39 20 23 0 40-13 40-37 0-27-34-38-31-66l-22 0c-4 31 29 44 29 64z m-17-81c9 0 17-7 17-17 0-10-8-17-17-17-10 0-16 7-16 17-1 10 6 17 16 17z"/>
<glyph glyph-name="edit" unicode="&#110;" d="M317 401l56 57c15 15 14 13 29 0l57-57c14-14 15-15 0-29l-57-56z m-29-28l85-85-184-183c-9 8-56 55-86 85z m-212-212l85-85-117-32z m-31 25l-44-156c-4-21 6-33 29-29l157 44 314 314c17 18 17 40 0 57l-85 85c-17 17-39 17-57 0z"/>
<glyph glyph-name="moon" unicode="&#111;" d="M256 512c-141 0-256-115-256-256 0-141 115-256 256-256 141 0 256 115 256 256 0 141-115 256-256 256z m31-45c6-1 11-8 8-14-7-16-22-26-39-26-17 0-33 10-38 25-4 7 1 14 8 14 10 2 19 3 30 3 11 0 20-1 31-2z m-114-407c-22 8-41 21-58 36-4 3-4 10-1 14 11 15 30 22 49 16 11-3 18-11 24-20 6-14 6-30-1-41-3-5-8-7-13-5z m83-17c-5 0-12 0-17 1-6 1-12 7-9 14 4 8 5 18 5 27 0 47-39 86-86 86-23 0-44-10-59-26-5-4-13-4-17 2-20 33-30 71-30 110 0 83 48 156 118 191 5 3 13 0 15-6 12-33 44-57 81-57 37 0 69 24 81 57 1 6 8 8 14 6 69-35 118-107 118-191-1-118-97-214-214-214z m85 277c-47 0-85-38-85-85 0-47 38-86 85-86 47 0 86 39 86 86 0 47-39 85-86 85z m0-128c-23 0-42 19-42 43 0 23 19 42 42 42 24 0 43-19 43-42 0-24-19-43-43-43z m-196 162c-31 0-56-25-56-56 0-31 25-57 56-57 31 0 57 26 57 57 0 31-26 56-57 56z m0-84c-15 0-28 13-28 28 0 15 13 27 28 27 15 0 28-12 28-27 0-15-13-28-28-28z"/>
<glyph glyph-name="sun" unicode="&#112;" d="M257 352c52 0 95-43 95-95 0-52-43-95-95-95-52 0-95 43-95 95 0 52 43 95 95 95z m-218-125l68 0c4-20 11-39 23-56l-47-47c-12-12-12-30 0-42 6-5 13-7 20-7 8 0 15 3 21 8l47 47c17-12 36-19 56-23l0-68c0-16 13-28 29-28 16 0 29 12 29 28l0 68c20 4 39 11 56 23l47-47c6-5 13-8 21-8 7 0 14 3 20 8 12 12 12 30 0 42l-46 46c12 17 19 36 23 56l68 0c16 0 28 13 28 29 0 16-12 29-28 29l-68 0c-4 20-11 39-23 56l47 47c12 12 12 30 0 42-12 12-30 12-42 0l-47-47c-17 12-36 19-56 23l0 68c0 16-13 28-29 28-16 0-29-12-29-28l0-68c-20-4-39-11-56-23l-47 47c-12 12-30 12-42 0-12-12-12-30 0-42l47-47c-12-17-19-36-23-56l-67 0c-16 0-28-13-28-29 0-16 12-29 28-29z"/>
<glyph glyph-name="wood" unicode="&#113;" d="M461 181l26 0-100 201-41-82-106 212-129-258 36 0-30-59-46 93-71-142 18 0-18-36 18 0-18-36 52 0 0-38-43 0c-5 0-9-3-9-8 0-6 3-9 9-9l52 0c4 0 8 3 8 9l0 46 4 0 0-46c0-2 1-5 2-7 1-1 3-2 6-2l148 0c5 0 9 3 9 9l0 82 3 0 0-82c0-3 2-7 5-8 1 0 3-1 4-1l127 0c4 0 8 3 8 9l0 46 3 0 0-46c0-5 3-9 9-9l81 0c4 0 8 3 8 9 0 5-3 8-8 8l-73 0 0 38 82 0-26 54 26 0z m-295 74l20 0c4 0 8 3 8 8 0 6-3 9-8 9l-47 0 3 7 107 0c4 0 8 4 8 9 0 5-3 9-8 9l-100 0 39 76 59 0c5 0 9 4 9 9 0 5-3 8-9 8l-52 0 43 86 103-205-36 0 36-73-36 0 6-12 3-5 27-54-203 0 27 55 84 0c4 0 8 4 8 9 0 5-3 8-8 8l-111 0z m-41-109l4 0-2-4z m22 36l-12-22-11 22z m-120-56l9 19 18 0c5 0 9 3 9 9 0 4-3 8-9 8l-27 0 44 89 45-89-19 0 18-36-18 0 18-36-88 0 18 36z m195-90l-132 0 0 38 52 0-18 36 18 0 0 1 79 0 0-75z m147 0l-111 0 0 74 47 0-18-36 82 0z m64 108l9-17-44 0c-4 0-9-3-9-9 0-4 4-8 9-8l51 0 10-20-144 0 9 20 45 0-36 72 36 0-36 73 36 0-6 14-7 13 32 64 74-147-53 0c-5 0-9-3-9-8 0-5 3-9 9-9l35 0 2-4-9 0c-4 0-8-3-8-8 0-5 3-9 8-9l17 0 9-16z"/>
<glyph glyph-name="mountain" unicode="&#114;" d="M385 327c-2 5-7 8-13 8-5 0-9-3-13-8l-19-34-69 121c-2 4-8 7-13 7-5 0-9-2-13-7l-117-205-22 40c-4 4-8 7-13 7-6 0-10-3-13-7l-78-137c-2-4-2-10 0-14 2-4 8-7 13-7l482 0c5 0 10 3 13 7 3 4 2 10 0 14z m-347-208l55 93 22-39c2-4 8-8 13-8 5 0 10 4 13 8l118 206 70-121c2-4 7-7 12-7 6 0 10 3 13 7l19 34 101-173z"/>
<glyph glyph-name="add-picture" unicode="&#115;" d="M241 263c-54 0-98-43-98-98 0-54 44-98 98-98 54 0 98 44 98 98 0 55-44 98-98 98z m0-164c-36 0-65 30-65 65 0 35 30 65 65 65 35 0 65-30 65-65 0-35-29-65-65-65z m186 218l-88 0-24 49-146 0-25-49-89 0c-30 0-55-25-55-56l0-197c0-31 25-55 55-55l372 0c31 0 55 24 55 55l0 197c0 31-24 56-55 56z m19-253c0-11-9-18-18-18l-373 0c-10 0-18 8-18 18l0 197c0 11 8 18 18 18l111 0 25 50 100 0 25-50 111 0c10 0 18-7 18-18l0-197z m54 390l-46 0 0 46c0 7-5 12-11 12l-7 0c-6 0-11-5-11-12l0-46-46 0c-7 0-12-5-12-11l0-7c0-6 5-11 12-11l46 0 0-46c0-7 5-12 11-12l7 0c6 0 11 5 11 12l0 46 46 0c7 0 12 5 12 11l0 7c0 6-5 11-12 11z m-214-289c0-24-20-44-45-44-25 0-45 20-45 44 0 25 20 45 45 45 25 0 45-20 45-45z"/>
<glyph glyph-name="road" unicode="&#116;" d="M305 247l134 123c3 2 4 5 4 9 0 3-1 6-4 8l-134 122c-4 4-12 4-16 0-4-4-4-12 0-16l126-115-126-116c-4-4-4-11 0-16 4-4 12-4 16 1z m-205-238c0-4-2-6-5-6l-19 0c-3 0-6 2-6 6l0 324c0 3 0 7 1 10 0 0 5 27 15 37 14 14 29 13 29 13 3 0 8 0 11 0l284 0c3 0 5-3 5-6l0-19c0-3-2-5-5-5l-285 0c-3 0-8 0-11 0 0 0-3 0-7-6-5-4-6-15-6-15 0-3-1-7-1-10z"/>
<glyph glyph-name="angle-left" unicode="&#117;" d="M343 508l-254-233c-5-4-7-10-7-16 0-5 1-12 7-16l254-232c9-9 23-9 30 0 9 8 9 21 0 30l-239 218 239 219c9 8 9 21 0 30-8 8-21 8-30 0z"/>
<glyph glyph-name="add-library" unicode="&#118;" d="M13 275l196-88c17-9 25-9 44 0l196 88c15 7 15 35 0 44l-196 103c-15 10-27 9-44 0l-196-103c-15-10-15-35 0-44z m218 130l201-107-201-85-200 85z m0 0c2-2 2-1 0 0z m0-385l-200 92c1 0-18 9-31 16 0-11 3-32 13-37l196-89c17-8 25-8 44 0l196 89c10 4 13 25 13 37-13-6-31-15-31-15z m0 92l-200 93c1 0-18 7-31 15 0-11 3-32 13-38l196-88c17-9 25-9 44 0l196 88c10 5 13 26 13 38-13-7-31-15-31-15z m271 347l-42 0 0 42c0 6-5 11-11 11l-6 0c-6 0-11-4-11-11l0-42-43 0c-5 0-10-5-10-11l0-6c0-6 4-11 10-11l43 0 0-43c0-5 4-10 11-10l6 0c5 0 11 4 11 10l0 43 42 0c6 0 11 4 11 11l0 6c0 6-4 11-11 11z"/>
<glyph glyph-name="library" unicode="&#119;" d="M258 475l224-121-224-95-224 95z m-243-145l220-100c19-9 27-9 49 0l219 99c16 7 18 39 0 49l-220 116c-17 11-30 9-49 0l-219-116c-17-11-17-40 0-48z m0-104l220-99c19-10 27-10 49 0l219 98c11 5 15 29 15 42-13-8-34-17-34-17l-224-104-224 104c1 0-20 8-34 17-2-12 1-34 13-41z m243-182l-224 103c1 0-20 9-34 17 0-13 3-35 15-41l220-98c19-10 27-10 49 0l219 98c11 5 15 28 15 41-13-7-34-17-34-17z"/>
<glyph glyph-name="eye" unicode="&#120;" d="M372 131c-37-22-78-34-121-34-44 0-85 12-122 34-37 23-68 54-94 92 29 44 64 77 107 99-12-19-17-40-17-63 0-34 13-64 37-88 25-25 55-38 89-38 34 0 64 13 88 38 25 24 38 54 38 88 0 23-6 44-18 63 43-21 78-54 107-99-24-38-55-69-94-92z m-181 188c17 17 36 26 60 26 3 0 6-2 9-5 2-2 5-5 5-9 0-5-2-7-5-10-2-2-5-4-9-4-16 0-30-6-42-17-12-12-17-26-17-42 0-4-1-6-4-9-2-3-6-5-10-5-4 0-6 1-9 5-3 2-5 5-5 9 1 24 10 44 27 61z m305-77c-27 43-61 77-106 104-43 25-90 39-139 39-49 0-96-13-140-39-44-26-79-61-106-104-3-6-5-13-5-19 0-6 2-13 5-19 27-43 61-77 106-104 44-25 91-38 140-38 49 0 96 13 139 38 44 26 79 61 106 104 4 6 5 13 5 19 1 6-1 13-5 19z"/>
<glyph glyph-name="location" unicode="&#121;" d="M276 510c-93 0-168-76-168-169 0-37 23-98 73-186 36-62 70-114 71-117l24-38 25 38c1 3 35 55 70 117 49 88 74 149 74 186 0 93-76 169-169 169z m0-299c-73 0-132 60-132 132 0 73 59 133 132 133 74 0 133-60 133-133 0-72-60-132-133-132z"/>
<glyph glyph-name="compass" unicode="&#122;" d="M256 42c-121 0-219 97-219 218 0 122 98 219 219 219 121 0 219-98 219-219 0-120-98-218-219-218z m0 470c-140 0-253-113-253-252 0-138 113-253 253-253 140 0 253 114 253 253 0 140-113 252-253 252z m-18-226l60 52-16-78 28-17 23 156-124-97z m-41-121l16 78-28 17-23-155 124 97-29 17z m76 87c0 14-12 25-26 25-13 0-25-11-25-25 0-14 12-26 25-26 14 0 26 12 26 26z"/>
<glyph glyph-name="delete" unicode="&#65;" d="M380 65c0-4-1-8-2-13-1-4-4-6-5-8-2-2-3-3-3-3l-267 0c-1 0-2 1-3 3-2 2-3 4-4 8-1 5-2 9-2 13l0 304 287 0z m-200 383c1 2 3 3 6 3l101 0c2 0 4-2 5-3l15-37-143 0z m279-41c-2 3-5 4-8 4l-99 0-22 53c-4 7-9 15-17 20-9 6-18 9-26 9l-102 0c-9 0-18-3-26-9-9-5-14-13-17-20l-23-53-98 0c-3 0-5-1-7-4-2-2-3-4-3-7l0-20c0-3 1-6 3-8 2-2 4-3 7-3l31 0 0-305c0-18 6-33 15-46 10-12 22-18 36-18l267 0c14 0 27 6 36 19 10 13 15 28 15 46l0 304 31 0c3 0 6 1 8 3 2 2 3 5 3 8l0 20c-1 3-2 5-4 7z m-315-305l20 0c3 0 6 1 8 4 2 2 3 4 3 7l0 185c0 3-1 5-3 7-2 2-5 3-8 3l-20 0c-3 0-5-1-7-3-3-2-4-4-4-7l0-185c0-3 1-5 4-7 2-3 4-4 7-4z m82 0l20 0c4 0 6 1 8 4 2 2 3 4 3 7l0 185c0 3-1 5-3 7-2 2-4 3-8 3l-20 0c-3 0-5-1-7-3-2-2-4-4-4-7l0-185c0-3 2-5 4-7 2-3 4-4 7-4z m82 0l21 0c3 0 5 1 7 4 2 2 3 4 3 7l0 185c0 3-1 5-3 7-2 2-4 3-7 3l-21 0c-3 0-5-1-7-3-2-2-3-4-3-7l0-185c0-3 1-5 3-7 2-3 4-4 7-4z"/>
<glyph glyph-name="cadrillage" unicode="&#66;" d="M499 349c7 0 13 5 13 13l0 11c0 7-5 13-13 13l-66 0 0 107c0 6-5 13-13 13l-11 0c-7 0-13-6-13-13l0-107-262 0 0 107c0 6-5 13-12 13l-12 0c-7 0-13-6-13-13l0-107-64 0c-6 0-13-5-13-13l0-11c0-7 6-13 13-13l65 0 0-206-65 0c-6 0-13-5-13-13l0-12c1-5 7-11 13-11l65 0 0-92c0-6 5-13 13-13l12 0c6 0 12 5 12 13l0 92 263 0 0-92c0-6 5-13 13-13l11 0c7 0 13 5 13 13l0 92 66 0c7 0 13 5 13 12l0 12c0 7-5 13-13 13l-66 0 0 205z m-102-206l-263 0 0 206 263 0z"/>
<glyph glyph-name="flash" unicode="&#67;" d="M365 353c-3 3-7 4-10 4-1 0-2 0-3-1l-117-29 50 136c1 2 1 3 1 5 0 3-1 7-4 9-1 3-5 4-9 4l-96 0c-3 0-5-1-8-2-3-2-5-4-5-6l-58-243c-1-4 0-8 4-11 2-2 5-4 9-4 2 0 4 0 4 0l118 30-58-236c-1-4 0-7 2-9 2-3 4-4 7-5 2 0 3-1 4-1 6 0 10 2 13 7l158 339c2 5 1 9-2 13z"/>
<glyph glyph-name="check" unicode="&#68;" d="M446 479c-16 10-37 4-47-13l-218-377-122 113c-13 13-34 13-48 1-14-13-15-34-1-48l155-144c13-14 34-15 48-1 5 4 246 423 246 423 9 16 3 36-13 46z"/>
<glyph glyph-name="refresh" unicode="&#69;" d="M494 329l0 149-52-51c-47 50-115 82-188 82-140 0-254-114-254-255 0-141 114-254 254-254 71 0 136 30 182 78l-41 44c-34-38-86-61-141-61-108 0-194 86-194 194 0 108 86 194 194 194 56 0 109-26 145-64l-56-55 151 0z"/>
</font>
</defs>
</svg>
